<?xml version="1.0" encoding="utf-8"?>
<!-- Generator: Adobe Illustrator 16.0.4, SVG Export Plug-In . SVG Version: 6.00 Build 0)  -->
<!DOCTYPE svg PUBLIC "-//W3C//DTD SVG 1.1//EN" "http://www.w3.org/Graphics/SVG/1.1/DTD/svg11.dtd">
<svg version="1.1" class="work-icon" id="Layer_1" xmlns="http://www.w3.org/2000/svg" xmlns:xlink="http://www.w3.org/1999/xlink" x="0px" y="0px"
   viewBox="0 0 360 360" preserveAspectRatio="xMinYMax meet" enable-background="new 0 0 360 360" xml:space="preserve">
<line fill="none" stroke="#000000" stroke-width="14" stroke-miterlimit="10" x1="99" y1="0" x2="99" y2="72"/>
<line fill="none" stroke="#000000" stroke-width="14" stroke-miterlimit="10" x1="45" y1="0" x2="45" y2="216"/>
<g>
  <path d="M99,72c4.971,0,9,4.03,9,9s-4.029,9-9,9s-9-4.029-9-9S94.029,72,99,72 M99,58c-12.682,0-23,10.318-23,23s10.318,23,23,23
    s23-10.317,23-23S111.682,58,99,58L99,58z"/>
</g>
<line fill="none" stroke="#000000" stroke-width="14" stroke-miterlimit="10" x1="153" y1="0" x2="153" y2="162"/>
<g>
  <path d="M153,162c4.971,0,9,4.03,9,9s-4.029,9-9,9s-9-4.029-9-9S148.029,162,153,162 M153,148c-12.682,0-23,10.318-23,23
    c0,12.683,10.318,23,23,23s23-10.316,23-23C176,158.318,165.682,148,153,148L153,148z"/>
</g>
<g>
  <path d="M153,323.998c4.971,0,9,4.031,9,9.002s-4.029,9-9,9s-9-4.029-9-9S148.029,323.998,153,323.998 M153,309.998
    c-12.682,0-23,10.318-23,23.002c0,12.683,10.318,23,23,23s23-10.317,23-23C176,320.316,165.682,309.998,153,309.998L153,309.998z"
    />
</g>
<g>
  <path d="M207,261c4.971,0,9,4.029,9,9s-4.029,9-9,9s-9-4.029-9-9S202.029,261,207,261 M207,247c-12.683,0-23,10.317-23,23
    s10.317,23,23,23s23-10.317,23-23S219.683,247,207,247L207,247z"/>
</g>
<line fill="none" stroke="#000000" stroke-width="14" stroke-miterlimit="10" x1="315" y1="0" x2="315" y2="126"/>
<g>
  <path d="M315,126c4.971,0,9,4.03,9,9s-4.029,9-9,9s-9-4.029-9-9S310.029,126,315,126 M315,112c-12.683,0-23,10.318-23,23
    s10.317,23,23,23s23-10.317,23-23S327.683,112,315,112L315,112z"/>
</g>
<g>
  <path d="M45,216c4.971,0,9,4.029,9,9s-4.029,9-9,9s-9-4.029-9-9S40.029,216,45,216 M45,202c-12.682,0-23,10.318-23,23
    c0,12.683,10.318,23,23,23s23-10.317,23-23C68,212.318,57.682,202,45,202L45,202z"/>
</g>
<polyline fill="none" stroke="#000000" stroke-width="14" stroke-miterlimit="10" points="153,324 153,252 207,198 207,0 "/>
<polyline fill="none" stroke="#000000" stroke-width="14" stroke-miterlimit="10" points="216,261 261,216 261,0 "/>
</svg>
