<?xml version="1.0" encoding="utf-8"?>
<!-- Generator: Adobe Illustrator 16.0.4, SVG Export Plug-In . SVG Version: 6.00 Build 0)  -->
<!DOCTYPE svg PUBLIC "-//W3C//DTD SVG 1.1//EN" "http://www.w3.org/Graphics/SVG/1.1/DTD/svg11.dtd">
<svg version="1.1" class="navbar-logo" id="Layer_1" xmlns="http://www.w3.org/2000/svg" xmlns:xlink="http://www.w3.org/1999/xlink" x="0px" y="0px"
  viewBox="0 0 388.126 335.266" preserveAspectRatio="xMinYMax meet" enable-background="new 0 0 388.126 335.266" xml:space="preserve">
  <a class="svglink" xlink:href="/" >
    <g>
      <path class="ec-frame" d="M373.126,15v305.266H15V15H373.126 M388.126,0H0v335.266h388.126V0L388.126,0z"/>
    </g>
    <g>
      <path class="e" d="M144.388,152.77v14.863H83.816V83.816h58.56V98.68h-40.679v17.993H135v14.975h-33.303v21.122H144.388z"/>
    </g>
    <g>
      <path class="c"  d="M304.199,237.759c-8.605,9.611-20.451,14.64-32.968,14.64c-23.915,0-43.026-18.551-43.026-42.914
        c0-24.251,19.111-42.802,43.026-42.802c12.517,0,24.362,5.029,33.079,14.751l-12.069,12.07
        c-4.693-7.823-12.739-11.958-21.01-11.958c-14.863,0-25.146,13.522-25.146,27.939s10.17,28.051,25.146,28.051
        c6.37,0,12.628-1.9,21.122-11.623L304.199,237.759z"/>
    </g>
    <rect opacity="0" fill="#FFFFFF" width="388.126px" height="335.266px"/>
  </a>
</svg>
