<?xml version="1.0" encoding="utf-8"?>
<!-- Generator: Adobe Illustrator 16.0.4, SVG Export Plug-In . SVG Version: 6.00 Build 0)  -->
<!DOCTYPE svg PUBLIC "-//W3C//DTD SVG 1.1//EN" "http://www.w3.org/Graphics/SVG/1.1/DTD/svg11.dtd">
<svg version="1.1" id="Layer_1" xmlns="http://www.w3.org/2000/svg" xmlns:xlink="http://www.w3.org/1999/xlink" x="0px" y="0px"
	 width="360px" height="360px" viewBox="0 0 360 360" enable-background="new 0 0 360 360" xml:space="preserve">
<g>
	<path d="M180,7c46.21,0,89.654,17.995,122.329,50.67C335.005,90.346,353,133.79,353,180s-17.995,89.654-50.671,122.329
		C269.654,335.005,226.21,353,180,353s-89.654-17.995-122.33-50.671C24.995,269.654,7,226.21,7,180S24.995,90.346,57.67,57.67
		C90.346,24.995,133.79,7,180,7 M180,0C80.589,0,0,80.589,0,180s80.589,180,180,180s180-80.589,180-180S279.411,0,180,0L180,0z"/>
</g>
<g>
	<path fill="#010101" d="M240.752,270.389H123.198v-60.912v-11.941v-32.353v-20.577V88.87h117.554c0.988,0,1.854-0.381,2.592-1.146
		c0.742-0.763,1.113-1.658,1.113-2.682c0-1.016-0.371-1.911-1.109-2.676c-0.742-0.766-1.606-1.15-2.596-1.15H119.624
		c-1.021,0-1.959,0.331-2.808,0.989c-0.849,0.658-1.273,1.566-1.273,2.716v189.665c0,1.156,0.381,2.143,1.147,2.965
		c0.765,0.827,1.745,1.235,2.934,1.235h121.128c1.148,0,2.057-0.453,2.716-1.359c0.656-0.901,0.988-1.852,0.988-2.841
		c0-0.986-0.371-1.934-1.112-2.84C242.604,270.844,241.74,270.389,240.752,270.389z"/>
	<path fill="#01999A" d="M215.809,197.534c0.989,0,1.891-0.398,2.715-1.197c0.824-0.794,1.235-1.674,1.235-2.634
		c0-2.551-1.319-3.825-3.95-3.825h-62.966c-0.003,0-0.006-0.002-0.011-0.002c-2.112,0-3.827,1.715-3.827,3.827
		c0,2.115,1.715,3.831,3.827,3.831l0,0l0,0H215.809z"/>
	<path fill="#01999A" d="M214.82,172.838c0.988,0,1.854-0.382,2.596-1.146c0.738-0.764,1.109-1.66,1.109-2.683
		c0-1.019-0.371-1.913-1.109-2.678c-0.741-0.764-1.607-1.152-2.596-1.152h-61.987l0,0l0,0c-2.112,0-3.827,1.715-3.827,3.83
		c0,2.114,1.715,3.827,3.827,3.827l0,0l0,0h61.987V172.838L214.82,172.838z"/>
</g>
</svg>
