<?xml version="1.0" encoding="utf-8"?>
<!-- Generator: Adobe Illustrator 16.0.0, SVG Export Plug-In . SVG Version: 6.00 Build 0)  -->
<!DOCTYPE svg PUBLIC "-//W3C//DTD SVG 1.1//EN" "http://www.w3.org/Graphics/SVG/1.1/DTD/svg11.dtd">
<svg version="1.1" id="Layer_1" xmlns="http://www.w3.org/2000/svg" xmlns:xlink="http://www.w3.org/1999/xlink" x="0px" y="0px"
	 width="100px" height="153.256px" viewBox="0 0 100 153.256" enable-background="new 0 0 100 153.256" xml:space="preserve">
<path d="M97.126,146.743H5.938V99.494v-9.265V65.133V49.172V5.938h91.188c0.767,0,1.437-0.296,2.011-0.889
	C99.712,4.457,100,3.763,100,2.969c0-0.789-0.288-1.483-0.861-2.077C98.562,0.299,97.893,0,97.126,0H3.166
	c-0.792,0-1.52,0.257-2.178,0.767C0.329,1.278,0,1.982,0,2.874v147.125c0,0.896,0.296,1.662,0.89,2.3
	c0.593,0.642,1.353,0.958,2.276,0.958h93.96c0.892,0,1.595-0.351,2.106-1.054c0.509-0.7,0.767-1.437,0.767-2.204
	c0-0.766-0.288-1.5-0.862-2.203C98.562,147.097,97.893,146.743,97.126,146.743z"/>
<path fill="#009999" d="M77.777,90.229c0.767,0,1.466-0.309,2.106-0.928c0.638-0.617,0.958-1.299,0.958-2.042
	c0-1.979-1.023-2.969-3.064-2.969H28.934c-0.003,0-0.005-0.001-0.008-0.001c-1.639,0-2.969,1.33-2.969,2.97s1.33,2.97,2.969,2.97
	l0,0l0,0H77.777z"/>
<path fill="#009999" d="M77.012,71.072c0.766,0,1.437-0.296,2.012-0.889c0.574-0.592,0.861-1.287,0.861-2.081
	c0-0.79-0.287-1.484-0.861-2.077c-0.575-0.593-1.246-0.893-2.012-0.893H28.927l0,0l0,0c-1.639,0-2.969,1.33-2.969,2.97
	s1.33,2.969,2.969,2.969l0,0l0,0h48.085V71.072z"/>
</svg>
